<svg width="276" height="74" viewBox="0 0 276 74" fill="none" xmlns="http://www.w3.org/2000/svg">
<path d="M88.3125 52.4102C87.8036 52.4102 87.5491 52.1423 87.5491 51.6066V23.2808C87.5491 22.8255 87.7634 22.5978 88.1919 22.5978H94.9821C95.25 22.5978 95.4375 22.638 95.5446 22.7183C95.6785 22.7719 95.7723 22.9192 95.8258 23.1603L102.897 42.1245C102.978 42.3388 103.071 42.4459 103.178 42.4459C103.286 42.4191 103.379 42.2986 103.46 42.0843L110.33 23.3612C110.491 22.8523 110.759 22.5978 111.134 22.5978H118.165C118.54 22.5978 118.728 22.8121 118.728 23.2406V51.5664C118.728 52.1289 118.433 52.4102 117.844 52.4102H113.545C113.277 52.4102 113.076 52.3566 112.942 52.2494C112.835 52.1155 112.781 51.928 112.781 51.6869V30.6736C112.781 30.5129 112.741 30.446 112.661 30.4728C112.58 30.4728 112.513 30.5531 112.46 30.7138L104.826 51.8075C104.692 52.2093 104.424 52.4102 104.022 52.4102H101.17C100.714 52.4102 100.42 52.2093 100.286 51.8075L92.7321 30.9549C92.6785 30.7674 92.6116 30.687 92.5312 30.7138C92.4509 30.7138 92.4107 30.8076 92.4107 30.9951V51.7673C92.4107 52.0084 92.3705 52.1825 92.2901 52.2896C92.2098 52.37 92.0223 52.4102 91.7276 52.4102H88.3125ZM128.756 43.4102C128.756 44.5084 129.01 45.4995 129.519 46.3834C130.028 47.2405 130.725 47.9236 131.608 48.4325C132.519 48.9146 133.51 49.1557 134.582 49.1557C135.68 49.1557 136.671 48.928 137.555 48.4727C138.466 48.0173 139.323 47.2807 140.126 46.2629C140.233 46.1289 140.327 46.062 140.408 46.062C140.488 46.0352 140.622 46.0754 140.809 46.1825L143.26 47.2673C143.608 47.428 143.649 47.6691 143.381 47.9905C142.577 49.1691 141.707 50.12 140.769 50.8432C139.858 51.5396 138.841 52.0486 137.716 52.37C136.617 52.6646 135.372 52.8119 133.979 52.8119C131.943 52.8119 130.122 52.3566 128.515 51.4459C126.908 50.5352 125.635 49.2762 124.698 47.6691C123.787 46.0352 123.332 44.1602 123.332 42.0441C123.332 39.7138 123.8 37.7049 124.738 36.0174C125.702 34.3299 126.988 33.0308 128.595 32.1201C130.202 31.1826 131.97 30.7138 133.899 30.7138C135.934 30.7138 137.702 31.1558 139.202 32.0397C140.729 32.9236 141.921 34.196 142.778 35.8567C143.635 37.4906 144.064 39.4861 144.064 41.8432C144.064 42.1111 144.037 42.3254 143.983 42.4861C143.957 42.6468 143.769 42.7406 143.421 42.7673H129.198C129.037 42.7673 128.917 42.8209 128.836 42.9281C128.783 43.0352 128.756 43.1959 128.756 43.4102ZM138.278 39.7941C138.546 39.7941 138.72 39.7674 138.8 39.7138C138.908 39.6334 138.961 39.4727 138.961 39.2316C138.961 38.4013 138.774 37.5843 138.399 36.7808C138.024 35.9772 137.475 35.3209 136.751 34.812C136.028 34.2763 135.144 34.0085 134.1 34.0085C133.028 34.0085 132.091 34.2763 131.287 34.812C130.483 35.3209 129.867 36.0174 129.439 36.9013C129.037 37.7584 128.836 38.7227 128.836 39.7941H138.278ZM162.786 52.4102C162.572 52.4102 162.384 52.3566 162.224 52.2494C162.09 52.1423 162.023 51.9548 162.023 51.6869V50.3611C162.023 50.1736 161.969 50.0664 161.862 50.0396C161.755 50.0128 161.634 50.0664 161.501 50.2003C161.099 50.5753 160.63 50.9637 160.094 51.3655C159.559 51.7673 158.902 52.1155 158.126 52.4102C157.376 52.678 156.478 52.8119 155.434 52.8119C153.8 52.8119 152.34 52.4102 151.054 51.6066C149.768 50.803 148.751 49.5977 148.001 47.9905C147.251 46.3834 146.876 44.3745 146.876 41.9638C146.876 39.7138 147.264 37.745 148.041 36.0576C148.844 34.3701 149.929 33.0576 151.295 32.1201C152.661 31.1826 154.188 30.7138 155.876 30.7138C157.054 30.7138 158.059 30.9013 158.889 31.2763C159.746 31.6513 160.536 32.1736 161.259 32.8433C161.501 33.004 161.675 33.071 161.782 33.0442C161.889 32.9906 161.943 32.8165 161.943 32.5219V23.2406C161.943 22.8121 162.13 22.5978 162.505 22.5978H166.563C166.965 22.5978 167.166 22.8255 167.166 23.2808V51.6468C167.166 51.9146 167.099 52.1155 166.965 52.2494C166.858 52.3566 166.643 52.4102 166.322 52.4102H162.786ZM161.943 36.379C161.246 35.6826 160.55 35.1468 159.853 34.7718C159.184 34.3701 158.407 34.1692 157.523 34.1692C156.505 34.1692 155.581 34.4504 154.751 35.0129C153.947 35.5486 153.318 36.3924 152.862 37.5442C152.407 38.6691 152.179 40.1156 152.179 41.8834C152.179 43.6781 152.407 45.1379 152.862 46.2629C153.318 47.3611 153.934 48.1646 154.71 48.6736C155.514 49.1825 156.411 49.437 157.402 49.437C158.259 49.437 159.023 49.2361 159.693 48.8343C160.389 48.4325 160.938 47.9236 161.34 47.3075C161.742 46.6914 161.943 46.0754 161.943 45.4593V36.379ZM200.733 31.1156C200.974 31.1156 201.134 31.196 201.215 31.3567C201.322 31.5174 201.335 31.7049 201.255 31.9192L194.826 51.8075C194.773 52.0218 194.679 52.1825 194.545 52.2896C194.438 52.37 194.264 52.4102 194.023 52.4102H191.17C190.661 52.4102 190.34 52.1825 190.206 51.7271L186.309 39.312C186.201 39.0709 186.094 38.9504 185.987 38.9504C185.907 38.9504 185.826 39.0709 185.746 39.312L181.889 51.8075C181.835 52.0218 181.742 52.1825 181.608 52.2896C181.5 52.37 181.326 52.4102 181.085 52.4102H178.112C177.63 52.4102 177.322 52.1825 177.188 51.7271L170.759 31.9594C170.679 31.7183 170.693 31.5174 170.8 31.3567C170.907 31.196 171.081 31.1156 171.322 31.1156H175.219C175.407 31.1156 175.581 31.1692 175.742 31.2763C175.902 31.3835 175.996 31.5308 176.023 31.7183L180.041 44.5352C180.094 44.803 180.175 44.937 180.282 44.937C180.416 44.9102 180.523 44.7629 180.603 44.495L184.5 31.6781C184.554 31.5174 184.648 31.3835 184.782 31.2763C184.916 31.1692 185.076 31.1156 185.264 31.1156H188.157C188.317 31.1156 188.465 31.1692 188.599 31.2763C188.759 31.3835 188.867 31.5308 188.92 31.7183L192.898 44.5352C192.978 44.803 193.072 44.937 193.179 44.937C193.286 44.9102 193.38 44.7629 193.46 44.495L197.358 31.6781C197.438 31.5174 197.545 31.3835 197.679 31.2763C197.813 31.1692 197.974 31.1156 198.161 31.1156H200.733ZM215.917 50.2003C215.006 51.0039 214.015 51.6468 212.944 52.1289C211.872 52.5843 210.653 52.8119 209.287 52.8119C207.225 52.8119 205.604 52.2762 204.426 51.2048C203.274 50.1066 202.698 48.687 202.698 46.9459C202.698 45.4727 203.14 44.2004 204.024 43.1289C204.908 42.0307 206.194 41.1736 207.881 40.5575C209.569 39.9415 211.591 39.5799 213.948 39.4727L215.957 39.3522C216.118 39.3254 216.265 39.2718 216.399 39.1915C216.533 39.1111 216.6 38.9638 216.6 38.7495V37.8254C216.6 36.6468 216.252 35.7361 215.555 35.0933C214.859 34.4236 213.895 34.0888 212.662 34.0888C211.725 34.0888 210.841 34.3031 210.011 34.7317C209.207 35.1334 208.511 35.8031 207.921 36.7406C207.841 36.9013 207.747 37.0084 207.64 37.062C207.56 37.1156 207.399 37.1156 207.158 37.062L203.783 36.2183C203.649 36.1647 203.542 36.0843 203.462 35.9772C203.408 35.8701 203.462 35.6558 203.622 35.3343C204.345 33.8076 205.484 32.6558 207.037 31.879C208.618 31.1022 210.573 30.7138 212.903 30.7138C214.966 30.7138 216.627 30.9951 217.886 31.5576C219.171 32.1201 220.109 32.9102 220.698 33.9281C221.287 34.9192 221.582 36.0977 221.582 37.4638V51.6066C221.582 51.9012 221.528 52.1155 221.421 52.2494C221.341 52.3566 221.167 52.4102 220.899 52.4102H217.484C217.243 52.4102 217.069 52.3164 216.961 52.1289C216.854 51.9414 216.787 51.7137 216.761 51.4459L216.68 50.2405C216.627 49.7852 216.372 49.7718 215.917 50.2003ZM216.6 42.687C216.6 42.2048 216.399 41.9772 215.997 42.004L214.35 42.1245C213.493 42.1781 212.662 42.312 211.859 42.5263C211.082 42.7138 210.386 42.9816 209.77 43.3298C209.18 43.6513 208.698 44.0664 208.323 44.5754C207.975 45.0575 207.801 45.6334 207.801 46.303C207.801 47.2138 208.122 47.937 208.765 48.4727C209.435 49.0084 210.332 49.2762 211.457 49.2762C212.18 49.2762 212.85 49.1557 213.466 48.9146C214.082 48.6736 214.618 48.3655 215.073 47.9905C215.528 47.6155 215.89 47.2271 216.158 46.8254C216.453 46.3968 216.6 45.9682 216.6 45.5397V42.687ZM227.884 59.0396C227.08 59.0396 226.478 58.9994 226.076 58.9191C225.674 58.8655 225.473 58.678 225.473 58.3566V55.7851C225.473 55.6244 225.554 55.4771 225.714 55.3432C225.875 55.236 226.183 55.1825 226.639 55.1825H229.29C229.826 55.1825 230.308 55.0351 230.737 54.7405C231.192 54.4459 231.554 54.0843 231.822 53.6557C232.116 53.2271 232.304 52.7852 232.384 52.3298C232.491 51.8477 232.464 51.4191 232.304 51.0441L224.589 31.9995C224.509 31.7585 224.522 31.5576 224.63 31.3969C224.737 31.2094 224.924 31.1156 225.192 31.1156H229.371C229.558 31.1156 229.719 31.1692 229.853 31.2763C230.013 31.3835 230.121 31.5308 230.174 31.7183L235.156 44.937C235.237 45.178 235.344 45.2986 235.478 45.2986C235.612 45.2986 235.732 45.1513 235.839 44.8566L240.781 31.6781C240.862 31.5174 240.955 31.3835 241.063 31.2763C241.196 31.1692 241.357 31.1156 241.545 31.1156H244.478C244.692 31.1156 244.853 31.2094 244.96 31.3969C245.067 31.5576 245.067 31.7317 244.96 31.9192L236.522 53.053C236.013 54.3119 235.478 55.3298 234.915 56.1066C234.38 56.8834 233.777 57.486 233.107 57.9146C232.438 58.3432 231.674 58.6378 230.817 58.7985C229.987 58.9592 229.009 59.0396 227.884 59.0396ZM272.832 51.0843C273.18 51.5932 273.287 51.9414 273.153 52.1289C273.046 52.3164 272.805 52.4102 272.43 52.4102H267.729C267.22 52.4102 266.872 52.236 266.685 51.8878L260.337 41.9638C260.149 41.6691 259.988 41.5218 259.854 41.5218C259.72 41.495 259.546 41.6557 259.332 42.004L253.064 51.8878C252.957 52.0753 252.81 52.2093 252.622 52.2896C252.435 52.37 252.207 52.4102 251.939 52.4102H248.122C247.747 52.4102 247.506 52.3164 247.399 52.1289C247.319 51.9414 247.439 51.5932 247.761 51.0843L256.479 37.8656C256.64 37.6245 256.707 37.4236 256.68 37.2629C256.68 37.1022 256.6 36.9013 256.439 36.6602L247.801 23.5219C247.694 23.3344 247.667 23.1335 247.721 22.9192C247.774 22.7049 247.935 22.5978 248.203 22.5978H253.185C253.506 22.5978 253.734 22.638 253.868 22.7183C254.002 22.7987 254.122 22.946 254.229 23.1603L259.935 32.2004C260.069 32.3879 260.203 32.4817 260.337 32.4817C260.47 32.4817 260.604 32.3745 260.738 32.1602L266.444 23.1603C266.551 22.946 266.671 22.7987 266.805 22.7183C266.966 22.638 267.18 22.5978 267.448 22.5978H271.667C271.988 22.5978 272.162 22.6915 272.189 22.879C272.216 23.0665 272.149 23.254 271.988 23.4415L263.631 36.0977C263.47 36.2852 263.39 36.4593 263.39 36.6201C263.417 36.7808 263.497 36.9683 263.631 37.1825L272.832 51.0843Z" fill="white"/>
<circle cx="36.8302" cy="36.8302" r="36.8302" fill="#C31F26"/>
<path d="M13.5011 23.2406C13.5011 23.0531 13.5547 22.9058 13.6618 22.7987C13.769 22.6648 13.9431 22.5978 14.1841 22.5978H36.7644C37.0055 22.5978 37.1796 22.6648 37.2867 22.7987C37.3939 22.9058 37.4474 23.0531 37.4474 23.2406V26.3746C37.4474 26.7496 37.2331 26.9371 36.8046 26.9371H29.0903C28.7957 26.9371 28.6484 27.071 28.6484 27.3388V51.7271C28.6484 52.1825 28.4475 52.4102 28.0457 52.4102H23.2645C22.8895 52.4102 22.702 52.1959 22.702 51.7673V27.4192C22.702 27.0978 22.5546 26.9371 22.26 26.9371H14.1841C13.7288 26.9371 13.5011 26.7496 13.5011 26.3746V23.2406ZM42.2265 52.4102C41.7175 52.4102 41.4631 52.1691 41.4631 51.6869V23.2808C41.4631 22.8255 41.664 22.5978 42.0657 22.5978H46.0434C46.3916 22.5978 46.5657 22.7987 46.5657 23.2005V33.6468C46.5657 33.8076 46.6059 33.9013 46.6863 33.9281C46.7666 33.9549 46.8738 33.9147 47.0077 33.8076C47.8916 33.0576 48.7086 32.4683 49.4586 32.0397C50.2086 31.5844 50.9586 31.2495 51.7086 31.0353C52.4586 30.821 53.2353 30.7138 54.0389 30.7138C56.1014 30.7138 57.6817 31.2763 58.78 32.4013C59.8782 33.5263 60.4273 35.0665 60.4273 37.0218V51.5664C60.4273 52.1289 60.146 52.4102 59.5835 52.4102H55.8871C55.646 52.4102 55.4719 52.3566 55.3648 52.2494C55.2577 52.1423 55.2041 51.9548 55.2041 51.6869V37.8656C55.2041 36.8209 54.9228 36.0174 54.3603 35.4549C53.8246 34.8656 52.9943 34.571 51.8693 34.571C51.2264 34.571 50.6237 34.6781 50.0612 34.8924C49.5255 35.0799 48.9898 35.3745 48.4541 35.7763C47.9184 36.1781 47.3291 36.687 46.6863 37.3031V51.6066C46.6863 52.1423 46.3916 52.4102 45.8023 52.4102H42.2265Z" fill="white"/>
</svg>
