<svg width="100" height="100" viewBox="0 0 100 100" fill="none" xmlns="http://www.w3.org/2000/svg">
<g clip-path="url(#clip0_8408_1320)">
<path d="M50 0.00439453C22.4283 0.00439453 0 22.4349 0 50.0044C0 77.5739 22.4283 100.004 50 100.004C77.5717 100.004 100 77.5739 100 50.0044C100 22.4349 77.5717 0.00439453 50 0.00439453ZM50 95.8378C24.7273 95.8378 4.1666 75.2771 4.1666 50.0044C4.1666 24.7317 24.7273 4.171 50 4.171C75.2727 4.171 95.8334 24.7317 95.8334 50.0044C95.8334 75.2771 75.2727 95.8378 50 95.8378Z" fill="#08184D"/>
<path d="M69.8771 48.2527L40.7105 29.5027C40.0717 29.0857 39.2457 29.0632 38.5865 29.4253C37.915 29.7916 37.5 30.4916 37.5 31.2544V68.7544C37.5 69.5173 37.915 70.2173 38.5865 70.5835C38.8957 70.7525 39.2416 70.8378 39.5834 70.8378C39.974 70.8378 40.3688 70.7279 40.7105 70.5062L69.8771 51.7562C70.4713 51.3738 70.8334 50.7125 70.8334 50.0044C70.8334 49.2964 70.4713 48.6353 69.8771 48.2527ZM41.6666 64.9376V35.0712L64.8967 50.0044L41.6666 64.9376Z" fill="#08184D"/>
</g>
<defs>
<clipPath id="clip0_8408_1320">
<rect width="100" height="100" fill="white" transform="translate(0 0.00439453)"/>
</clipPath>
</defs>
</svg>
