<svg width="215" height="58" viewBox="0 0 215 58" fill="none" xmlns="http://www.w3.org/2000/svg">
<path d="M69.0412 40.6114C68.6433 40.6114 68.4444 40.402 68.4444 39.9832V17.8384C68.4444 17.4825 68.6119 17.3045 68.9469 17.3045H74.2554C74.4648 17.3045 74.6114 17.3359 74.6952 17.3987C74.7999 17.4406 74.8732 17.5557 74.915 17.7442L80.4434 32.5702C80.5062 32.7377 80.5795 32.8215 80.6633 32.8215C80.747 32.8006 80.8203 32.7063 80.8831 32.5388L86.2544 17.9013C86.3801 17.5034 86.5895 17.3045 86.8826 17.3045H92.3796C92.6727 17.3045 92.8193 17.472 92.8193 17.807V39.9518C92.8193 40.3916 92.589 40.6114 92.1283 40.6114H88.7673C88.5579 40.6114 88.4008 40.5696 88.2961 40.4858C88.2124 40.3811 88.1705 40.2345 88.1705 40.046V23.6181C88.1705 23.4924 88.1391 23.4401 88.0763 23.461C88.0134 23.461 87.9611 23.5238 87.9192 23.6495L81.9511 40.1403C81.8464 40.4544 81.637 40.6114 81.3229 40.6114H79.0927C78.7367 40.6114 78.5064 40.4544 78.4017 40.1403L72.4964 23.838C72.4545 23.6914 72.4022 23.6285 72.3393 23.6495C72.2765 23.6495 72.2451 23.7228 72.2451 23.8694V40.1089C72.2451 40.2973 72.2137 40.4334 72.1509 40.5172C72.088 40.58 71.9415 40.6114 71.7111 40.6114H69.0412ZM100.659 33.5754C100.659 34.4339 100.858 35.2087 101.256 35.8998C101.654 36.5699 102.198 37.1039 102.889 37.5018C103.601 37.8787 104.376 38.0671 105.214 38.0671C106.072 38.0671 106.847 37.8892 107.538 37.5332C108.25 37.1772 108.92 36.6013 109.549 35.8056C109.632 35.7009 109.706 35.6485 109.769 35.6485C109.831 35.6276 109.936 35.659 110.083 35.7427L111.999 36.5908C112.271 36.7165 112.302 36.9049 112.093 37.1562C111.465 38.0776 110.784 38.821 110.051 39.3864C109.339 39.9309 108.543 40.3287 107.664 40.58C106.805 40.8104 105.832 40.9256 104.743 40.9256C103.151 40.9256 101.727 40.5696 100.471 39.8576C99.2144 39.1456 98.2197 38.1614 97.4868 36.9049C96.7748 35.6276 96.4188 34.1617 96.4188 32.5074C96.4188 30.6856 96.7853 29.115 97.5182 27.7957C98.2721 26.4765 99.2772 25.4609 100.534 24.7489C101.79 24.016 103.172 23.6495 104.68 23.6495C106.271 23.6495 107.654 23.995 108.826 24.6861C110.02 25.3771 110.952 26.3718 111.622 27.6701C112.292 28.9475 112.627 30.5076 112.627 32.3503C112.627 32.5597 112.606 32.7273 112.564 32.8529C112.543 32.9786 112.397 33.0519 112.124 33.0728H101.005C100.879 33.0728 100.785 33.1147 100.722 33.1984C100.68 33.2822 100.659 33.4078 100.659 33.5754ZM108.104 30.7484C108.313 30.7484 108.449 30.7274 108.512 30.6856C108.596 30.6227 108.638 30.4971 108.638 30.3086C108.638 29.6595 108.491 29.0208 108.198 28.3926C107.905 27.7643 107.476 27.2513 106.91 26.8534C106.345 26.4346 105.654 26.2252 104.837 26.2252C103.999 26.2252 103.266 26.4346 102.638 26.8534C102.01 27.2513 101.528 27.7957 101.193 28.4868C100.879 29.1569 100.722 29.9108 100.722 30.7484H108.104ZM127.264 40.6114C127.096 40.6114 126.95 40.5696 126.824 40.4858C126.72 40.402 126.667 40.2555 126.667 40.046V39.0095C126.667 38.8629 126.625 38.7791 126.542 38.7582C126.458 38.7373 126.364 38.7791 126.259 38.8838C125.945 39.177 125.578 39.4806 125.159 39.7948C124.741 40.1089 124.228 40.3811 123.62 40.6114C123.034 40.8208 122.332 40.9256 121.516 40.9256C120.238 40.9256 119.097 40.6114 118.092 39.9832C117.087 39.355 116.291 38.4127 115.705 37.1562C115.118 35.8998 114.825 34.3292 114.825 32.4446C114.825 30.6856 115.129 29.1464 115.736 27.8272C116.364 26.5079 117.212 25.4818 118.28 24.7489C119.348 24.016 120.542 23.6495 121.861 23.6495C122.783 23.6495 123.568 23.7961 124.217 24.0892C124.887 24.3824 125.505 24.7908 126.07 25.3143C126.259 25.4399 126.395 25.4923 126.479 25.4713C126.562 25.4294 126.604 25.2933 126.604 25.063V17.807C126.604 17.472 126.751 17.3045 127.044 17.3045H130.217C130.531 17.3045 130.688 17.4825 130.688 17.8384V40.0146C130.688 40.224 130.635 40.3811 130.531 40.4858C130.447 40.5696 130.279 40.6114 130.028 40.6114H127.264ZM126.604 28.0784C126.06 27.534 125.515 27.1152 124.971 26.822C124.447 26.5079 123.84 26.3508 123.149 26.3508C122.353 26.3508 121.631 26.5707 120.982 27.0105C120.354 27.4293 119.861 28.0889 119.505 28.9894C119.149 29.8689 118.971 30.9997 118.971 32.3818C118.971 33.7848 119.149 34.926 119.505 35.8056C119.861 36.6641 120.343 37.2923 120.95 37.6902C121.579 38.0881 122.28 38.287 123.055 38.287C123.725 38.287 124.322 38.13 124.845 37.8159C125.39 37.5018 125.819 37.1039 126.133 36.6222C126.447 36.1406 126.604 35.659 126.604 35.1773V28.0784ZM156.93 23.9636C157.118 23.9636 157.244 24.0264 157.307 24.1521C157.391 24.2777 157.401 24.4243 157.338 24.5918L152.313 40.1403C152.271 40.3078 152.197 40.4334 152.093 40.5172C152.009 40.58 151.873 40.6114 151.684 40.6114H149.454C149.056 40.6114 148.805 40.4334 148.7 40.0775L145.653 30.3714C145.57 30.183 145.486 30.0887 145.402 30.0887C145.339 30.0887 145.276 30.183 145.214 30.3714L142.198 40.1403C142.156 40.3078 142.083 40.4334 141.978 40.5172C141.895 40.58 141.758 40.6114 141.57 40.6114H139.246C138.869 40.6114 138.628 40.4334 138.523 40.0775L133.497 24.6232C133.435 24.4348 133.445 24.2777 133.529 24.1521C133.613 24.0264 133.749 23.9636 133.937 23.9636H136.984C137.131 23.9636 137.267 24.0055 137.392 24.0892C137.518 24.173 137.591 24.2882 137.612 24.4348L140.753 34.4549C140.795 34.6643 140.858 34.769 140.942 34.769C141.046 34.7481 141.13 34.6329 141.193 34.4235L144.24 24.4034C144.282 24.2777 144.355 24.173 144.46 24.0892C144.564 24.0055 144.69 23.9636 144.837 23.9636H147.098C147.224 23.9636 147.339 24.0055 147.444 24.0892C147.569 24.173 147.653 24.2882 147.695 24.4348L150.805 34.4549C150.868 34.6643 150.941 34.769 151.025 34.769C151.108 34.7481 151.182 34.6329 151.245 34.4235L154.291 24.4034C154.354 24.2777 154.438 24.173 154.543 24.0892C154.647 24.0055 154.773 23.9636 154.92 23.9636H156.93ZM168.801 38.8838C168.089 39.5121 167.314 40.0146 166.476 40.3916C165.639 40.7476 164.686 40.9256 163.618 40.9256C162.006 40.9256 160.739 40.5067 159.817 39.6691C158.917 38.8105 158.467 37.7007 158.467 36.3395C158.467 35.1878 158.812 34.1931 159.503 33.3555C160.194 32.4969 161.199 31.8268 162.519 31.3452C163.838 30.8636 165.419 30.5809 167.262 30.4971L168.832 30.4029C168.958 30.3819 169.073 30.34 169.178 30.2772C169.283 30.2144 169.335 30.0992 169.335 29.9317V29.2092C169.335 28.2879 169.063 27.5759 168.518 27.0733C167.974 26.5498 167.22 26.288 166.257 26.288C165.524 26.288 164.833 26.4555 164.183 26.7906C163.555 27.1047 163.011 27.6282 162.55 28.3611C162.487 28.4868 162.414 28.5705 162.33 28.6124C162.267 28.6543 162.142 28.6543 161.953 28.6124L159.315 27.9528C159.21 27.9109 159.126 27.8481 159.063 27.7643C159.022 27.6806 159.063 27.513 159.189 27.2618C159.754 26.0681 160.644 25.1677 161.859 24.5604C163.095 23.9531 164.623 23.6495 166.445 23.6495C168.057 23.6495 169.356 23.8694 170.34 24.3091C171.345 24.7489 172.078 25.3666 172.539 26.1624C172.999 26.9372 173.23 27.8586 173.23 28.9265V39.9832C173.23 40.2136 173.188 40.3811 173.104 40.4858C173.041 40.5696 172.905 40.6114 172.696 40.6114H170.026C169.837 40.6114 169.701 40.5382 169.618 40.3916C169.534 40.245 169.481 40.067 169.461 39.8576L169.398 38.9152C169.356 38.5593 169.157 38.5488 168.801 38.8838ZM169.335 33.01C169.335 32.633 169.178 32.455 168.864 32.476L167.576 32.5702C166.906 32.6121 166.257 32.7168 165.628 32.8843C165.021 33.0309 164.477 33.2403 163.995 33.5126C163.534 33.7638 163.157 34.0884 162.864 34.4863C162.592 34.8632 162.456 35.3134 162.456 35.837C162.456 36.5489 162.707 37.1143 163.21 37.5332C163.733 37.952 164.435 38.1614 165.314 38.1614C165.88 38.1614 166.403 38.0671 166.885 37.8787C167.366 37.6902 167.785 37.4494 168.141 37.1562C168.497 36.8631 168.78 36.5594 168.989 36.2453C169.22 35.9103 169.335 35.5752 169.335 35.2402V33.01ZM178.157 45.7943C177.528 45.7943 177.057 45.7629 176.743 45.7C176.429 45.6581 176.272 45.5116 176.272 45.2603V43.25C176.272 43.1243 176.335 43.0092 176.46 42.9044C176.586 42.8207 176.827 42.7788 177.183 42.7788H179.256C179.675 42.7788 180.052 42.6636 180.387 42.4333C180.743 42.2029 181.026 41.9202 181.235 41.5852C181.465 41.2501 181.612 40.9046 181.675 40.5486C181.758 40.1717 181.738 39.8366 181.612 39.5435L175.581 24.6546C175.518 24.4662 175.529 24.3091 175.612 24.1835C175.696 24.0369 175.843 23.9636 176.052 23.9636H179.319C179.465 23.9636 179.591 24.0055 179.696 24.0892C179.821 24.173 179.905 24.2882 179.947 24.4348L183.842 34.769C183.905 34.9575 183.989 35.0517 184.093 35.0517C184.198 35.0517 184.292 34.9365 184.376 34.7062L188.24 24.4034C188.302 24.2777 188.376 24.173 188.46 24.0892C188.564 24.0055 188.69 23.9636 188.836 23.9636H191.129C191.297 23.9636 191.423 24.0369 191.506 24.1835C191.59 24.3091 191.59 24.4452 191.506 24.5918L184.91 41.114C184.512 42.0982 184.093 42.894 183.654 43.5013C183.235 44.1085 182.764 44.5797 182.24 44.9148C181.717 45.2498 181.12 45.4802 180.45 45.6058C179.801 45.7314 179.036 45.7943 178.157 45.7943ZM213.297 39.5749C213.569 39.9728 213.653 40.245 213.548 40.3916C213.464 40.5382 213.276 40.6114 212.982 40.6114H209.307C208.909 40.6114 208.637 40.4753 208.491 40.2031L203.528 32.4446C203.381 32.2142 203.255 32.0991 203.151 32.0991C203.046 32.0781 202.91 32.2038 202.742 32.476L197.842 40.2031C197.759 40.3497 197.643 40.4544 197.497 40.5172C197.35 40.58 197.172 40.6114 196.963 40.6114H193.979C193.686 40.6114 193.497 40.5382 193.413 40.3916C193.351 40.245 193.445 39.9728 193.696 39.5749L200.512 29.2407C200.638 29.0522 200.69 28.8951 200.669 28.7695C200.669 28.6438 200.606 28.4868 200.481 28.2983L193.727 18.0269C193.644 17.8803 193.623 17.7233 193.665 17.5558C193.707 17.3882 193.832 17.3045 194.042 17.3045H197.937C198.188 17.3045 198.366 17.3359 198.471 17.3987C198.575 17.4615 198.669 17.5767 198.753 17.7442L203.214 24.8117C203.318 24.9583 203.423 25.0316 203.528 25.0316C203.632 25.0316 203.737 24.9478 203.842 24.7803L208.302 17.7442C208.386 17.5767 208.48 17.4615 208.585 17.3987C208.711 17.3359 208.878 17.3045 209.087 17.3045H212.386C212.637 17.3045 212.773 17.3778 212.794 17.5243C212.815 17.6709 212.763 17.8175 212.637 17.9641L206.103 27.8586C205.978 28.0052 205.915 28.1413 205.915 28.2669C205.936 28.3926 205.999 28.5391 206.103 28.7067L213.297 39.5749Z" fill="#08184D"/>
<circle cx="28.7934" cy="28.7934" r="28.7934" fill="#C31F26"/>
<path d="M10.5546 17.807C10.5546 17.6605 10.5965 17.5453 10.6803 17.4615C10.764 17.3568 10.9001 17.3045 11.0886 17.3045H28.7416C28.9301 17.3045 29.0662 17.3568 29.15 17.4615C29.2337 17.5453 29.2756 17.6605 29.2756 17.807V20.2571C29.2756 20.5503 29.1081 20.6969 28.773 20.6969H22.7421C22.5118 20.6969 22.3966 20.8016 22.3966 21.011V40.0775C22.3966 40.4334 22.2395 40.6114 21.9254 40.6114H18.1875C17.8943 40.6114 17.7477 40.4439 17.7477 40.1089V21.0738C17.7477 20.8225 17.6326 20.6969 17.4022 20.6969H11.0886C10.7326 20.6969 10.5546 20.5503 10.5546 20.2571V17.807ZM33.0118 40.6114C32.6139 40.6114 32.415 40.423 32.415 40.046V17.8384C32.415 17.4825 32.572 17.3045 32.8861 17.3045H35.9958C36.2681 17.3045 36.4042 17.4615 36.4042 17.7756V25.9425C36.4042 26.0681 36.4356 26.1414 36.4984 26.1624C36.5612 26.1833 36.645 26.1519 36.7497 26.0681C37.4407 25.4818 38.0794 25.0211 38.6658 24.6861C39.2521 24.3301 39.8385 24.0683 40.4248 23.9008C41.0111 23.7333 41.6184 23.6495 42.2466 23.6495C43.8591 23.6495 45.0946 24.0892 45.9531 24.9688C46.8117 25.8483 47.241 27.0523 47.241 28.581V39.9518C47.241 40.3916 47.0211 40.6114 46.5814 40.6114H43.6915C43.5031 40.6114 43.367 40.5696 43.2832 40.4858C43.1994 40.402 43.1576 40.2555 43.1576 40.046V29.2407C43.1576 28.424 42.9377 27.7957 42.4979 27.356C42.0791 26.8953 41.4299 26.6649 40.5504 26.6649C40.0479 26.6649 39.5767 26.7487 39.1369 26.9162C38.7181 27.0628 38.2993 27.2932 37.8805 27.6073C37.4617 27.9214 37.001 28.3193 36.4984 28.8009V39.9832C36.4984 40.402 36.2681 40.6114 35.8074 40.6114H33.0118Z" fill="white"/>
</svg>
